<svg xmlns="http://www.w3.org/2000/svg" xmlns:xlink="http://www.w3.org/1999/xlink" width="1056" zoomAndPan="magnify" viewBox="0 0 792 611.999999" height="816" preserveAspectRatio="xMidYMid meet" version="1.0"><defs><g/><clipPath id="2c5ea78439"><path d="M 13 142.964844 L 334 142.964844 L 334 427 L 13 427 Z M 13 142.964844 " clip-rule="nonzero"/></clipPath><clipPath id="1262df1d1f"><path d="M 63 0.964844 L 320 0.964844 L 320 284.480469 L 63 284.480469 Z M 63 0.964844 " clip-rule="nonzero"/></clipPath><clipPath id="09e4530f29"><rect x="0" width="321" y="0" height="285"/></clipPath><clipPath id="0c61b8eb5c"><path d="M 220.574219 142.964844 L 404.171875 142.964844 L 404.171875 440.695312 L 220.574219 440.695312 Z M 220.574219 142.964844 " clip-rule="nonzero"/></clipPath><clipPath id="5efd65a27b"><path d="M 0.574219 0.964844 L 184.171875 0.964844 L 184.171875 298.695312 L 0.574219 298.695312 Z M 0.574219 0.964844 " clip-rule="nonzero"/></clipPath><clipPath id="3606efd637"><rect x="0" width="185" y="0" height="299"/></clipPath><clipPath id="c01ccd6b0d"><rect x="0" width="234" y="0" height="380"/></clipPath><clipPath id="7c5ff6a8e9"><rect x="0" width="353" y="0" height="340"/></clipPath><clipPath id="5f1f021a50"><path d="M 687 181.402344 L 778 181.402344 L 778 312.652344 L 687 312.652344 Z M 687 181.402344 " clip-rule="nonzero"/></clipPath><clipPath id="4cee4a89d3"><path d="M 685 272 L 729 272 L 729 325 L 685 325 Z M 685 272 " clip-rule="nonzero"/></clipPath><clipPath id="04139707a9"><path d="M 730.792969 279.660156 L 693.871094 326.34375 L 683.46875 318.117188 L 720.394531 271.433594 Z M 730.792969 279.660156 " clip-rule="nonzero"/></clipPath><clipPath id="1ded7cff2a"><path d="M 710.179688 301.578125 C 705.671875 310.753906 701.300781 319.753906 691.992188 324.84375 L 685.816406 319.960938 C 695.207031 314.5 699.71875 305.1875 704.089844 296.1875 C 708.597656 287.015625 712.96875 278.015625 722.277344 272.925781 L 728.453125 277.808594 C 719.066406 283.265625 714.550781 292.582031 710.179688 301.578125 Z M 710.179688 301.578125 " clip-rule="nonzero"/></clipPath><clipPath id="5a2547a1a3"><path d="M 0.679688 0.878906 L 43.640625 0.878906 L 43.640625 52.960938 L 0.679688 52.960938 Z M 0.679688 0.878906 " clip-rule="nonzero"/></clipPath><clipPath id="9db030bfcc"><path d="M 45.792969 7.660156 L 8.871094 54.34375 L -1.53125 46.117188 L 35.394531 -0.566406 Z M 45.792969 7.660156 " clip-rule="nonzero"/></clipPath><clipPath id="a08d12c0bf"><path d="M 25.179688 29.578125 C 20.671875 38.753906 16.300781 47.753906 6.992188 52.84375 L 0.816406 47.960938 C 10.207031 42.5 14.71875 33.1875 19.089844 24.1875 C 23.597656 15.015625 27.96875 6.015625 37.277344 0.925781 L 43.453125 5.808594 C 34.066406 11.265625 29.550781 20.582031 25.179688 29.578125 Z M 25.179688 29.578125 " clip-rule="nonzero"/></clipPath><clipPath id="a19cef555b"><rect x="0" width="44" y="0" height="53"/></clipPath></defs><rect x="-79.2" width="950.4" fill="#ffffff" y="-61.2" height="734.399999" fill-opacity="1"/><rect x="-79.2" width="950.4" fill="#2e6a0e" y="-61.2" height="734.399999" fill-opacity="1"/><g clip-path="url(#2c5ea78439)"><g transform="matrix(1, 0, 0, 1, 13, 142)"><g clip-path="url(#09e4530f29)"><path fill="#ffffff" d="M 62.015625 190.855469 C 22.089844 173.484375 14.480469 144.339844 14.273438 143.503906 L 14.265625 143.484375 L 14.273438 143.503906 C 21.945312 175.097656 47.136719 190.875 61.265625 197.414062 C -9.667969 202.277344 1.933594 122.957031 1.933594 122.957031 C 55.488281 131.085938 61.65625 174.246094 62.015625 190.855469 " fill-opacity="1" fill-rule="nonzero"/><g clip-path="url(#1262df1d1f)"><path fill="#ffffff" d="M 169.621094 0.992188 C 196.6875 106.152344 121.917969 151.421875 91.566406 165.128906 C 92.257812 77.84375 140.039062 40.925781 141.410156 39.882812 C 91.496094 77.101562 80.765625 132.484375 79.066406 164.558594 C 83.175781 216.613281 123.78125 264.539062 176.855469 273.046875 C 224.519531 280.6875 273.4375 257.46875 298.15625 215.890625 C 318.164062 182.234375 320.394531 138.648438 303.929688 103.125 C 287.460938 67.601562 252.757812 41.136719 214.140625 34.65625 C 264.324219 41.980469 306.566406 82.292969 317.054688 131.730469 C 318.03125 136.304688 318.730469 141.007812 319.195312 145.796875 C 322.199219 175.742188 313.65625 206.699219 296.195312 231.148438 C 275.953125 259.488281 244.058594 278.570312 209.574219 283.199219 C 170.3125 288.4375 129.671875 274.683594 101.558594 246.753906 C 98.660156 243.871094 95.90625 240.851562 93.300781 237.703125 C 84.765625 227.382812 77.886719 215.714844 72.984375 203.253906 C 65.726562 184.804688 62.886719 164.820312 64.332031 145.128906 C 64.878906 137.710938 64.8125 130.253906 63.894531 122.871094 C 52.640625 31.769531 169.621094 0.992188 169.621094 0.992188 " fill-opacity="1" fill-rule="nonzero"/></g></g></g></g><g clip-path="url(#0c61b8eb5c)"><g transform="matrix(1, 0, 0, 1, 220, 142)"><g clip-path="url(#3606efd637)"><g clip-path="url(#5efd65a27b)"><path fill="#2e6a0e" d="M 0.574219 0.964844 L 184.171875 0.964844 L 184.171875 298.597656 L 0.574219 298.597656 Z M 0.574219 0.964844 " fill-opacity="1" fill-rule="nonzero"/></g></g></g></g><g transform="matrix(1, 0, 0, 1, 159, 93)"><g clip-path="url(#c01ccd6b0d)"><g fill="#ffffff" fill-opacity="1"><g transform="translate(0.918336, 242.044061)"><g><path d="M 195.78125 -96.953125 C 201.945312 -89.359375 206.253906 -80.425781 208.703125 -70.15625 C 211.148438 -59.882812 211.703125 -48.941406 210.359375 -37.328125 C 209.015625 -25.710938 205.738281 -13.984375 200.53125 -2.140625 C 192.78125 15.722656 181.992188 31.289062 168.171875 44.5625 C 154.347656 57.832031 138.191406 68.414062 119.703125 76.3125 C 101.210938 84.21875 81.0625 88.960938 59.25 90.546875 C 59.25 90.546875 59.171875 90.546875 59.015625 90.546875 C 56.171875 90.546875 54.671875 89.125 54.515625 86.28125 C 54.359375 85.019531 54.710938 83.910156 55.578125 82.953125 C 56.453125 82.003906 57.441406 81.53125 58.546875 81.53125 C 79.242188 79.957031 98.320312 75.457031 115.78125 68.03125 C 133.25 60.601562 148.539062 50.644531 161.65625 38.15625 C 174.769531 25.675781 184.960938 11.0625 192.234375 -5.6875 C 196.972656 -16.4375 199.972656 -27.101562 201.234375 -37.6875 C 202.503906 -48.269531 202.070312 -58.144531 199.9375 -67.3125 C 197.800781 -76.476562 194.046875 -84.457031 188.671875 -91.25 C 179.828125 -102.15625 167.660156 -108.632812 152.171875 -110.6875 C 145.535156 -103.738281 137.988281 -96.90625 129.53125 -90.1875 C 121.082031 -83.46875 112.550781 -77.34375 103.9375 -71.8125 C 95.320312 -66.289062 87.257812 -61.75 79.75 -58.1875 C 72.25 -54.632812 65.972656 -52.539062 60.921875 -51.90625 C 57.441406 -34.84375 54.039062 -17.773438 50.71875 -0.703125 C 47.40625 16.359375 44.363281 32.472656 41.59375 47.640625 C 38.832031 62.804688 36.503906 76.394531 34.609375 88.40625 C 32.710938 100.414062 31.367188 110.054688 30.578125 117.328125 C 30.890625 116.535156 31.207031 115.742188 31.53125 114.953125 C 32 113.691406 32.828125 112.820312 34.015625 112.34375 C 35.203125 111.875 36.425781 111.878906 37.6875 112.359375 C 38.789062 112.828125 39.578125 113.65625 40.046875 114.84375 C 40.523438 116.03125 40.53125 117.175781 40.0625 118.28125 C 37.53125 124.4375 35.351562 129.015625 33.53125 132.015625 C 31.71875 135.023438 29.707031 136.53125 27.5 136.53125 C 26.863281 136.53125 26.226562 136.375 25.59375 136.0625 C 24.488281 135.738281 23.5 134.90625 22.625 133.5625 C 21.757812 132.21875 21.285156 129.53125 21.203125 125.5 C 21.128906 121.476562 21.601562 115.394531 22.625 107.25 C 23.65625 99.113281 25.351562 88.171875 27.71875 74.421875 C 30.09375 60.679688 33.253906 43.300781 37.203125 22.28125 C 41.160156 1.257812 46.140625 -24.179688 52.140625 -54.046875 C 51.359375 -54.671875 50.6875 -55.65625 50.125 -57 C 49.570312 -58.34375 49.535156 -60.125 50.015625 -62.34375 C 51.597656 -68.03125 53.96875 -73.476562 57.125 -78.6875 C 58.539062 -85.957031 60.039062 -93.425781 61.625 -101.09375 C 63.207031 -108.757812 64.789062 -116.703125 66.375 -124.921875 C 70.320312 -144.191406 73.992188 -162.125 77.390625 -178.71875 C 80.785156 -195.3125 83.59375 -209.691406 85.8125 -221.859375 C 78.382812 -219.960938 71.429688 -217.359375 64.953125 -214.046875 C 47.566406 -205.660156 35.238281 -193.921875 27.96875 -178.828125 C 20.695312 -163.742188 19.117188 -146.722656 23.234375 -127.765625 C 23.546875 -126.492188 23.34375 -125.34375 22.625 -124.3125 C 21.914062 -123.289062 21.007812 -122.625 19.90625 -122.3125 C 18.644531 -121.988281 17.460938 -122.179688 16.359375 -122.890625 C 15.253906 -123.609375 14.617188 -124.597656 14.453125 -125.859375 C 9.710938 -147.035156 11.410156 -166.035156 19.546875 -182.859375 C 27.691406 -199.691406 41.484375 -212.847656 60.921875 -222.328125 C 69.296875 -226.441406 78.222656 -229.523438 87.703125 -231.578125 C 87.859375 -232.367188 88.015625 -233.117188 88.171875 -233.828125 C 88.328125 -234.535156 88.488281 -235.285156 88.65625 -236.078125 C 88.8125 -237.347656 89.398438 -238.335938 90.421875 -239.046875 C 91.453125 -239.753906 92.597656 -239.953125 93.859375 -239.640625 C 95.128906 -239.484375 96.117188 -238.890625 96.828125 -237.859375 C 97.535156 -236.828125 97.734375 -235.679688 97.421875 -234.421875 C 97.421875 -234.265625 97.421875 -234.109375 97.421875 -233.953125 C 97.421875 -233.796875 97.421875 -233.632812 97.421875 -233.46875 C 108.003906 -234.894531 118.429688 -235.015625 128.703125 -233.828125 C 138.972656 -232.640625 148.296875 -230.148438 156.671875 -226.359375 C 165.046875 -222.566406 171.84375 -217.507812 177.0625 -211.1875 C 183.0625 -204.082031 186.492188 -196.5 187.359375 -188.4375 C 188.234375 -180.375 187.484375 -172.390625 185.109375 -164.484375 C 182.742188 -156.585938 179.546875 -149.164062 175.515625 -142.21875 C 171.492188 -135.269531 167.582031 -129.265625 163.78125 -124.203125 C 162.519531 -122.304688 161.019531 -120.410156 159.28125 -118.515625 C 174.613281 -115.359375 186.78125 -108.171875 195.78125 -96.953125 Z M 62.8125 -61.390625 C 66.445312 -62.492188 71.1875 -64.46875 77.03125 -67.3125 C 82.882812 -70.15625 89.441406 -73.789062 96.703125 -78.21875 C 103.972656 -82.644531 111.359375 -87.625 118.859375 -93.15625 C 126.367188 -98.6875 133.441406 -104.691406 140.078125 -111.171875 C 133.921875 -111.171875 127.445312 -110.457031 120.65625 -109.03125 C 114.007812 -107.769531 107.207031 -105.675781 100.25 -102.75 C 93.300781 -99.832031 86.828125 -96.117188 80.828125 -91.609375 C 74.828125 -87.109375 69.769531 -81.695312 65.65625 -75.375 C 65.1875 -73.007812 64.710938 -70.679688 64.234375 -68.390625 C 63.765625 -66.097656 63.289062 -63.765625 62.8125 -61.390625 Z M 148.625 -120.171875 C 151.625 -123.335938 154.304688 -126.5 156.671875 -129.65625 C 168.210938 -145.300781 175.164062 -159.601562 177.53125 -172.5625 C 179.90625 -185.519531 177.457031 -196.421875 170.1875 -205.265625 C 165.445312 -210.953125 159.164062 -215.453125 151.34375 -218.765625 C 143.519531 -222.085938 134.75 -224.179688 125.03125 -225.046875 C 115.3125 -225.921875 105.476562 -225.488281 95.53125 -223.75 C 93.3125 -211.582031 90.421875 -196.847656 86.859375 -179.546875 C 83.304688 -162.242188 79.476562 -143.476562 75.375 -123.25 C 74.425781 -118.507812 73.4375 -113.691406 72.40625 -108.796875 C 71.382812 -103.898438 70.398438 -98.921875 69.453125 -93.859375 C 75.609375 -99.710938 82.914062 -104.691406 91.375 -108.796875 C 99.832031 -112.898438 109.035156 -115.984375 118.984375 -118.046875 C 129.421875 -120.097656 139.300781 -120.804688 148.625 -120.171875 Z M 148.625 -120.171875 "/></g></g></g></g></g><g transform="matrix(1, 0, 0, 1, 352, 137)"><g clip-path="url(#7c5ff6a8e9)"><g fill="#ffffff" fill-opacity="1"><g transform="translate(27.182506, 227.117311)"><g><path d="M 69.6875 -222.09375 C 71.738281 -219.09375 71.773438 -213.007812 69.796875 -203.84375 C 67.828125 -194.675781 63.757812 -183.335938 57.59375 -169.828125 C 51.4375 -156.316406 43.222656 -141.347656 32.953125 -124.921875 C 32.785156 -124.753906 32.625 -124.59375 32.46875 -124.4375 C 28.363281 -107.6875 24.296875 -90.617188 20.265625 -73.234375 C 16.234375 -55.859375 12.398438 -38.796875 8.765625 -22.046875 C 5.128906 -5.296875 1.8125 10.460938 -1.1875 25.234375 C -4.1875 40.015625 -6.753906 53.171875 -8.890625 64.703125 C -11.023438 76.242188 -12.566406 85.488281 -13.515625 92.4375 C -13.359375 92.4375 -13.195312 92.4375 -13.03125 92.4375 C -11.769531 92.914062 -10.863281 93.707031 -10.3125 94.8125 C -9.757812 95.914062 -9.71875 97.101562 -10.1875 98.375 C -11.289062 101.375 -12.4375 104.097656 -13.625 106.546875 C -14.8125 108.992188 -16.429688 110.21875 -18.484375 110.21875 C -18.960938 110.21875 -19.515625 110.140625 -20.140625 109.984375 C -21.566406 109.503906 -22.59375 108.515625 -23.21875 107.015625 C -23.851562 105.515625 -23.929688 102.507812 -23.453125 98 C -22.984375 93.5 -21.960938 86.585938 -20.390625 77.265625 C -17.546875 60.203125 -13.273438 37.921875 -7.578125 10.421875 C -3.472656 -8.847656 0.828125 -28.476562 5.328125 -48.46875 C 9.835938 -68.457031 14.300781 -87.734375 18.71875 -106.296875 C 23.144531 -124.867188 27.414062 -141.742188 31.53125 -156.921875 C 32.3125 -159.921875 33.492188 -164.101562 35.078125 -169.46875 C 36.660156 -174.84375 38.476562 -180.613281 40.53125 -186.78125 C 42.582031 -192.945312 44.875 -198.875 47.40625 -204.5625 C 49.9375 -210.25 52.539062 -214.945312 55.21875 -218.65625 C 57.90625 -222.375 60.59375 -224.46875 63.28125 -224.9375 C 65.96875 -225.414062 68.101562 -224.46875 69.6875 -222.09375 Z M 40.765625 -156.203125 C 48.347656 -170.421875 53.679688 -182.269531 56.765625 -191.75 C 59.847656 -201.238281 61.628906 -208.113281 62.109375 -212.375 C 59.890625 -209.21875 56.882812 -203.253906 53.09375 -194.484375 C 49.300781 -185.710938 45.191406 -172.953125 40.765625 -156.203125 Z M 40.765625 -156.203125 "/></g></g></g><g fill="#ffffff" fill-opacity="1"><g transform="translate(63.211391, 227.117311)"><g><path d="M 85.8125 -51.671875 C 86.914062 -50.878906 87.546875 -49.847656 87.703125 -48.578125 C 87.859375 -47.316406 87.539062 -46.210938 86.75 -45.265625 C 82.644531 -40.054688 77.863281 -35.394531 72.40625 -31.28125 C 66.957031 -27.175781 61.269531 -24.132812 55.34375 -22.15625 C 49.414062 -20.1875 43.6875 -19.832031 38.15625 -21.09375 C 35.945312 -15.5625 32.828125 -11.296875 28.796875 -8.296875 C 24.765625 -5.296875 20.695312 -3.796875 16.59375 -3.796875 C 16.59375 -3.796875 16.550781 -3.796875 16.46875 -3.796875 C 16.394531 -3.796875 16.359375 -3.796875 16.359375 -3.796875 C 12.085938 -3.953125 8.332031 -5.410156 5.09375 -8.171875 C 1.851562 -10.941406 -0.394531 -14.773438 -1.65625 -19.671875 C -3.082031 -25.203125 -3.320312 -30.457031 -2.375 -35.4375 C -1.425781 -40.414062 0.3125 -44.800781 2.84375 -48.59375 C 5.375 -52.382812 8.21875 -55.304688 11.375 -57.359375 C 12.476562 -58.148438 13.742188 -58.304688 15.171875 -57.828125 C 16.585938 -61.304688 18.597656 -63.992188 21.203125 -65.890625 C 23.816406 -67.785156 26.546875 -68.5 29.390625 -68.03125 C 31.128906 -67.707031 33.023438 -66.640625 35.078125 -64.828125 C 37.128906 -63.015625 38.785156 -59.773438 40.046875 -55.109375 C 41.316406 -50.453125 41.71875 -43.617188 41.25 -34.609375 C 41.082031 -33.023438 40.84375 -31.441406 40.53125 -29.859375 C 44.800781 -29.078125 49.304688 -29.550781 54.046875 -31.28125 C 58.785156 -33.019531 63.363281 -35.664062 67.78125 -39.21875 C 72.207031 -42.78125 76.082031 -46.695312 79.40625 -50.96875 C 80.195312 -51.914062 81.222656 -52.46875 82.484375 -52.625 C 83.753906 -52.78125 84.863281 -52.460938 85.8125 -51.671875 Z M 16.59375 -13.03125 C 18.644531 -13.03125 20.9375 -13.976562 23.46875 -15.875 C 26 -17.769531 28.050781 -20.617188 29.625 -24.421875 C 23.9375 -27.578125 19.867188 -31.207031 17.421875 -35.3125 C 14.972656 -39.425781 13.671875 -43.535156 13.515625 -47.640625 C 10.191406 -44.484375 8.015625 -40.453125 6.984375 -35.546875 C 5.960938 -30.648438 6.003906 -26.226562 7.109375 -22.28125 C 7.585938 -20.539062 8.535156 -18.5625 9.953125 -16.34375 C 11.378906 -14.132812 13.59375 -13.03125 16.59375 -13.03125 Z M 32 -35.078125 C 32.3125 -41.398438 32.191406 -46.296875 31.640625 -49.765625 C 31.085938 -53.242188 30.414062 -55.613281 29.625 -56.875 C 28.832031 -58.144531 28.28125 -58.859375 27.96875 -59.015625 C 27.8125 -59.015625 27.734375 -59.015625 27.734375 -59.015625 C 27.253906 -59.015625 26.539062 -58.539062 25.59375 -57.59375 C 24.644531 -56.644531 23.859375 -55.222656 23.234375 -53.328125 C 22.285156 -50.328125 22.363281 -47.046875 23.46875 -43.484375 C 24.570312 -39.929688 27.414062 -36.65625 32 -33.65625 C 32 -34.132812 32 -34.609375 32 -35.078125 Z M 32 -35.078125 "/></g></g></g><g fill="#ffffff" fill-opacity="1"><g transform="translate(139.061696, 227.117311)"><g><path d="M 85.8125 -51.671875 C 86.914062 -50.878906 87.546875 -49.847656 87.703125 -48.578125 C 87.859375 -47.316406 87.539062 -46.210938 86.75 -45.265625 C 82.644531 -40.054688 77.863281 -35.394531 72.40625 -31.28125 C 66.957031 -27.175781 61.269531 -24.132812 55.34375 -22.15625 C 49.414062 -20.1875 43.6875 -19.832031 38.15625 -21.09375 C 35.945312 -15.5625 32.828125 -11.296875 28.796875 -8.296875 C 24.765625 -5.296875 20.695312 -3.796875 16.59375 -3.796875 C 16.59375 -3.796875 16.550781 -3.796875 16.46875 -3.796875 C 16.394531 -3.796875 16.359375 -3.796875 16.359375 -3.796875 C 12.085938 -3.953125 8.332031 -5.410156 5.09375 -8.171875 C 1.851562 -10.941406 -0.394531 -14.773438 -1.65625 -19.671875 C -3.082031 -25.203125 -3.320312 -30.457031 -2.375 -35.4375 C -1.425781 -40.414062 0.3125 -44.800781 2.84375 -48.59375 C 5.375 -52.382812 8.21875 -55.304688 11.375 -57.359375 C 12.476562 -58.148438 13.742188 -58.304688 15.171875 -57.828125 C 16.585938 -61.304688 18.597656 -63.992188 21.203125 -65.890625 C 23.816406 -67.785156 26.546875 -68.5 29.390625 -68.03125 C 31.128906 -67.707031 33.023438 -66.640625 35.078125 -64.828125 C 37.128906 -63.015625 38.785156 -59.773438 40.046875 -55.109375 C 41.316406 -50.453125 41.71875 -43.617188 41.25 -34.609375 C 41.082031 -33.023438 40.84375 -31.441406 40.53125 -29.859375 C 44.800781 -29.078125 49.304688 -29.550781 54.046875 -31.28125 C 58.785156 -33.019531 63.363281 -35.664062 67.78125 -39.21875 C 72.207031 -42.78125 76.082031 -46.695312 79.40625 -50.96875 C 80.195312 -51.914062 81.222656 -52.46875 82.484375 -52.625 C 83.753906 -52.78125 84.863281 -52.460938 85.8125 -51.671875 Z M 16.59375 -13.03125 C 18.644531 -13.03125 20.9375 -13.976562 23.46875 -15.875 C 26 -17.769531 28.050781 -20.617188 29.625 -24.421875 C 23.9375 -27.578125 19.867188 -31.207031 17.421875 -35.3125 C 14.972656 -39.425781 13.671875 -43.535156 13.515625 -47.640625 C 10.191406 -44.484375 8.015625 -40.453125 6.984375 -35.546875 C 5.960938 -30.648438 6.003906 -26.226562 7.109375 -22.28125 C 7.585938 -20.539062 8.535156 -18.5625 9.953125 -16.34375 C 11.378906 -14.132812 13.59375 -13.03125 16.59375 -13.03125 Z M 32 -35.078125 C 32.3125 -41.398438 32.191406 -46.296875 31.640625 -49.765625 C 31.085938 -53.242188 30.414062 -55.613281 29.625 -56.875 C 28.832031 -58.144531 28.28125 -58.859375 27.96875 -59.015625 C 27.8125 -59.015625 27.734375 -59.015625 27.734375 -59.015625 C 27.253906 -59.015625 26.539062 -58.539062 25.59375 -57.59375 C 24.644531 -56.644531 23.859375 -55.222656 23.234375 -53.328125 C 22.285156 -50.328125 22.363281 -47.046875 23.46875 -43.484375 C 24.570312 -39.929688 27.414062 -36.65625 32 -33.65625 C 32 -34.132812 32 -34.609375 32 -35.078125 Z M 32 -35.078125 "/></g></g></g><g fill="#ffffff" fill-opacity="1"><g transform="translate(214.912, 227.117311)"><g><path d="M 133.6875 -53.09375 C 134.632812 -52.300781 135.144531 -51.273438 135.21875 -50.015625 C 135.300781 -48.753906 134.945312 -47.644531 134.15625 -46.6875 C 114.09375 -23.144531 98.210938 -13.585938 86.515625 -18.015625 C 78.140625 -21.171875 73.632812 -31.207031 73 -48.125 C 71.257812 -44.957031 69.398438 -41.359375 67.421875 -37.328125 C 65.453125 -33.296875 63.835938 -30.019531 62.578125 -27.5 C 61.628906 -25.125 60.679688 -22.988281 59.734375 -21.09375 C 58.785156 -19.195312 57.914062 -17.617188 57.125 -16.359375 C 56.644531 -15.410156 55.8125 -14.023438 54.625 -12.203125 C 53.445312 -10.390625 51.945312 -8.8125 50.125 -7.46875 C 48.3125 -6.125 46.21875 -5.769531 43.84375 -6.40625 C 41 -7.1875 38.863281 -9.273438 37.4375 -12.671875 C 36.019531 -16.078125 35.15625 -19.789062 34.84375 -23.8125 C 34.53125 -27.84375 34.375 -31.125 34.375 -33.65625 C 34.375 -35.707031 34.375 -37.679688 34.375 -39.578125 C 34.375 -41.472656 34.453125 -43.210938 34.609375 -44.796875 C 29.078125 -36.898438 23.78125 -28.722656 18.71875 -20.265625 C 13.664062 -11.804688 8.296875 -2.128906 2.609375 8.765625 C 0.710938 12.398438 -1.34375 14.21875 -3.5625 14.21875 C -4.34375 14.21875 -5.050781 13.984375 -5.6875 13.515625 C -6.476562 13.191406 -7.1875 12.675781 -7.8125 11.96875 C -8.445312 11.257812 -8.800781 9.835938 -8.875 7.703125 C -8.957031 5.566406 -8.644531 2.289062 -7.9375 -2.125 C -7.226562 -6.550781 -5.847656 -12.71875 -3.796875 -20.625 C -1.421875 -30.257812 1.382812 -39.816406 4.625 -49.296875 C 7.863281 -58.785156 11.140625 -67.320312 14.453125 -74.90625 C 14.929688 -76.164062 15.757812 -77.03125 16.9375 -77.5 C 18.125 -77.976562 19.273438 -77.898438 20.390625 -77.265625 C 21.648438 -76.796875 22.476562 -75.96875 22.875 -74.78125 C 23.269531 -73.59375 23.226562 -72.445312 22.75 -71.34375 C 18.488281 -61.382812 14.65625 -50.992188 11.25 -40.171875 C 7.851562 -29.347656 5.207031 -19.90625 3.3125 -11.84375 C 8.21875 -20.539062 13.039062 -28.640625 17.78125 -36.140625 C 22.519531 -43.648438 27.492188 -50.960938 32.703125 -58.078125 C 33.179688 -58.703125 34.015625 -59.566406 35.203125 -60.671875 C 36.390625 -61.785156 38.007812 -62.023438 40.0625 -61.390625 C 42.113281 -60.597656 43.253906 -59.09375 43.484375 -56.875 C 43.722656 -54.664062 43.765625 -50.957031 43.609375 -45.75 C 43.609375 -44.007812 43.566406 -42.113281 43.484375 -40.0625 C 43.410156 -38.007812 43.375 -35.875 43.375 -33.65625 C 43.375 -28.914062 43.6875 -25.046875 44.3125 -22.046875 C 44.945312 -19.046875 45.503906 -16.988281 45.984375 -15.875 C 46.296875 -16.195312 46.726562 -16.75 47.28125 -17.53125 C 47.84375 -18.320312 48.515625 -19.351562 49.296875 -20.625 C 49.929688 -21.726562 50.679688 -23.226562 51.546875 -25.125 C 52.421875 -27.019531 53.410156 -29.070312 54.515625 -31.28125 C 58.628906 -40.132812 61.988281 -46.929688 64.59375 -51.671875 C 67.195312 -56.410156 69.445312 -59.648438 71.34375 -61.390625 C 73.238281 -63.128906 75.210938 -63.757812 77.265625 -63.28125 C 79.796875 -62.65625 81.257812 -61.113281 81.65625 -58.65625 C 82.050781 -56.207031 82.25 -54.273438 82.25 -52.859375 C 82.09375 -45.429688 82.6875 -39.425781 84.03125 -34.84375 C 85.375 -30.257812 87.304688 -27.492188 89.828125 -26.546875 C 92.671875 -25.441406 97.210938 -26.707031 103.453125 -30.34375 C 109.703125 -33.976562 117.644531 -41.40625 127.28125 -52.625 C 128.070312 -53.570312 129.097656 -54.082031 130.359375 -54.15625 C 131.628906 -54.238281 132.738281 -53.882812 133.6875 -53.09375 Z M 133.6875 -53.09375 "/></g></g></g></g></g><g clip-path="url(#5f1f021a50)"><path fill="#ffffff" d="M 743.699219 199.261719 C 715.914062 211.171875 705.992188 219.109375 705.992188 219.109375 C 674.238281 244.90625 694.085938 286.582031 694.085938 286.582031 C 696.070312 258.800781 735.761719 238.953125 735.761719 238.953125 C 745.683594 233 757.589844 219.109375 757.589844 219.109375 C 751.636719 234.984375 741.714844 240.9375 741.714844 240.9375 C 698.054688 274.675781 694.085938 312.382812 694.085938 312.382812 L 704.007812 308.414062 C 704.007812 298.492188 709.960938 292.539062 709.960938 292.539062 C 749.652344 294.523438 769.496094 260.785156 769.496094 260.785156 C 787.359375 227.046875 769.496094 181.402344 769.496094 181.402344 C 769.496094 191.324219 743.699219 199.261719 743.699219 199.261719 Z M 743.699219 199.261719 " fill-opacity="1" fill-rule="nonzero"/></g><g clip-path="url(#4cee4a89d3)"><g clip-path="url(#04139707a9)"><g clip-path="url(#1ded7cff2a)"><g transform="matrix(1, 0, 0, 1, 685, 272)"><g clip-path="url(#a19cef555b)"><g clip-path="url(#5a2547a1a3)"><g clip-path="url(#9db030bfcc)"><g clip-path="url(#a08d12c0bf)"><path fill="#ffffff" d="M 45.792969 7.660156 L 8.871094 54.34375 L -1.53125 46.117188 L 35.394531 -0.566406 Z M 45.792969 7.660156 " fill-opacity="1" fill-rule="nonzero"/></g></g></g></g></g></g></g></g></svg>